<?xml version="1.0" encoding="UTF-8" standalone="no"?>
<!-- Created with Inkscape (http://www.inkscape.org/) -->

<svg
   width="728.80701"
   height="724.45874"
   viewBox="0 0 728.80701 724.45874"
   version="1.1"
   id="svg1"
   xml:space="preserve"
   inkscape:version="1.4.2 (ebf0e940d0, 2025-05-08)"
   sodipodi:docname="logo.svg"
   xmlns:inkscape="http://www.inkscape.org/namespaces/inkscape"
   xmlns:sodipodi="http://sodipodi.sourceforge.net/DTD/sodipodi-0.dtd"
   xmlns="http://www.w3.org/2000/svg"
   xmlns:svg="http://www.w3.org/2000/svg"><sodipodi:namedview
     id="namedview1"
     pagecolor="#ffffff"
     bordercolor="#000000"
     borderopacity="0.25"
     inkscape:showpageshadow="2"
     inkscape:pageopacity="0.0"
     inkscape:pagecheckerboard="0"
     inkscape:deskcolor="#d1d1d1"
     inkscape:document-units="px"
     inkscape:zoom="0.91283219"
     inkscape:cx="264.01348"
     inkscape:cy="333.57719"
     inkscape:window-width="1920"
     inkscape:window-height="1008"
     inkscape:window-x="0"
     inkscape:window-y="0"
     inkscape:window-maximized="1"
     inkscape:current-layer="layer1" /><defs
     id="defs1" /><g
     inkscape:label="Layer 1"
     inkscape:groupmode="layer"
     id="layer1"
     transform="translate(-13.612818,-3.340364)"><path
       style="fill:#00d455"
       d="M 347.20202,726.55092 C 262.24536,719.56268 179.7654,681.24235 119.395,620.7114 -7.3656079,493.61368 -22.008668,291.5697 85.248354,149.55831 142.67814,73.519623 223.78746,23.800982 316.16187,8.0122387 c 34.64594,-5.92173 81.93244,-6.24167 118.49568,-0.80176 C 509.32094,18.318978 580.945,54.655372 635.69049,109.19873 c 97.37978,97.02023 131.45956,239.47569 88.37102,369.396 -52.84012,159.3232 -208.58731,261.79768 -376.85949,247.95619 z m 244.94997,-98.28953 c 12.91332,-9.70694 40.25193,-36.70888 53.23466,-52.57909 36.47317,-44.58514 59.95892,-97.84341 70.15419,-159.08757 1.96311,-11.79264 2.43821,-21.98237 2.42454,-52 -0.0151,-33.13225 -0.36418,-39.26801 -3.10225,-54.52604 C 698.6017,219.45091 649.84088,141.9634 575.65863,88.854036 533.35163,58.565146 478.19888,37.230199 423.31197,29.921208 357.32719,21.134373 288.06456,32.398168 225.35121,62.114458 181.69212,82.802018 138.9505,117.85183 108.44646,157.98095 70.092906,208.43639 47.678174,262.54666 39.151924,325.2614 c -2.961524,21.78345 -2.954191,61.48877 0.0154,83.40967 9.850256,72.71241 47.854841,146.49456 102.310656,198.62605 16.63763,15.92748 29.29008,25.96427 32.73075,25.96427 1.66779,0 7.32294,-2.77557 12.56701,-6.16795 37.17239,-24.0467 102.52031,-45.21117 153.88181,-49.83828 10.23234,-0.92182 18.56235,-2.34546 20.33333,-3.47506 l 3,-1.91351 v -63.0606 c 0,-69.80259 -0.19033,-71.66565 -8.42664,-82.48575 -7.01082,-9.21017 -17.60731,-13.73519 -43.11377,-18.41089 -48.35117,-8.86345 -84.09368,-25.81449 -113.47494,-53.81599 -14.86525,-14.16717 -25.40884,-27.8114 -33.48089,-43.32691 -6.86441,-13.19426 -14.06434,-33.9731 -16.83777,-48.59343 -2.92368,-15.41242 -4.04283,-35.75994 -2.16032,-39.27745 2.46757,-4.61068 10.81704,-6.07665 34.82767,-6.1149 34.19946,-0.0545 58.28822,5.49977 88.66666,20.44427 36.18447,17.80075 63.91896,46.55427 82.69219,85.7305 7.6314,15.92531 12.81034,32.50371 18.69526,59.84573 3.64356,16.92844 5.06931,21.11458 6.65222,19.53167 0.46823,-0.46823 2.60574,-9.75085 4.75003,-20.62805 8.86917,-44.99019 19.3273,-69.36758 41.70329,-97.20831 24.78664,-30.84014 65.43755,-55.26362 106.17367,-63.79022 18.58994,-3.89112 41.14927,-5.32765 57.50887,-3.66204 21.04194,2.14233 21.1578,2.2486 21.1578,19.4066 0,17.19141 -2.76695,33.42456 -8.74551,51.30816 -16.8339,50.35508 -54.99125,87.58663 -111.25449,108.55515 -16.27702,6.06622 -24.20966,8.0661 -48.62621,12.25905 -29.12942,5.00227 -38.51209,10.31964 -45.91594,26.02155 l -3.45785,7.33333 -0.38159,64.1986 -0.3816,64.1986 3.31258,2.60567 c 2.52847,1.98889 7.19514,2.99115 19.71493,4.23414 58.75485,5.8333 105.94769,20.78489 151.02834,47.84863 8.77763,5.26956 16.66818,9.58103 17.53455,9.58103 0.86638,0 5.36664,-2.85 10.00057,-6.33334 z"
       id="path1" /></g></svg>
